<mxfile host="Electron" modified="2023-05-11T10:33:52.069Z" agent="Mozilla/5.0 (Macintosh; Intel Mac OS X 10_15_7) AppleWebKit/537.36 (KHTML, like Gecko) draw.io/21.2.8 Chrome/112.0.5615.165 Electron/24.2.0 Safari/537.36" etag="Jls5eiej-zKQzJijUo2Q" version="21.2.8" type="device">
  <diagram name="Page-1" id="MICMFjyC2_GTsTitcdrw">
    <mxGraphModel dx="954" dy="727" grid="1" gridSize="10" guides="1" tooltips="1" connect="1" arrows="1" fold="1" page="1" pageScale="1" pageWidth="827" pageHeight="1169" math="0" shadow="0">
      <root>
        <mxCell id="0" />
        <mxCell id="1" parent="0" />
        <mxCell id="5K5j_AOgpTq0dqUIbHza-4" value="" style="edgeStyle=orthogonalEdgeStyle;rounded=0;orthogonalLoop=1;jettySize=auto;html=1;strokeWidth=2;endArrow=open;endFill=0;" edge="1" parent="1" source="5K5j_AOgpTq0dqUIbHza-1" target="5K5j_AOgpTq0dqUIbHza-2">
          <mxGeometry relative="1" as="geometry" />
        </mxCell>
        <mxCell id="5K5j_AOgpTq0dqUIbHza-1" value="Green plants" style="rounded=0;whiteSpace=wrap;html=1;fillColor=none;fontSize=30;fontFamily=Ubuntu Mono;strokeWidth=3;strokeColor=none;" vertex="1" parent="1">
          <mxGeometry x="40" y="200" width="200" height="40" as="geometry" />
        </mxCell>
        <mxCell id="5K5j_AOgpTq0dqUIbHza-5" value="" style="edgeStyle=orthogonalEdgeStyle;rounded=0;orthogonalLoop=1;jettySize=auto;html=1;strokeWidth=2;endArrow=open;endFill=0;" edge="1" parent="1" source="5K5j_AOgpTq0dqUIbHza-2" target="5K5j_AOgpTq0dqUIbHza-3">
          <mxGeometry relative="1" as="geometry" />
        </mxCell>
        <mxCell id="5K5j_AOgpTq0dqUIbHza-2" value="Deer" style="rounded=0;whiteSpace=wrap;html=1;fillColor=none;fontSize=30;fontFamily=Ubuntu Mono;strokeWidth=3;strokeColor=none;" vertex="1" parent="1">
          <mxGeometry x="320" y="200" width="80" height="40" as="geometry" />
        </mxCell>
        <mxCell id="5K5j_AOgpTq0dqUIbHza-3" value="Lion" style="rounded=0;whiteSpace=wrap;html=1;fillColor=none;fontSize=30;fontFamily=Ubuntu Mono;strokeWidth=3;strokeColor=none;" vertex="1" parent="1">
          <mxGeometry x="480" y="200" width="80" height="40" as="geometry" />
        </mxCell>
      </root>
    </mxGraphModel>
  </diagram>
</mxfile>
